<svg xmlns="http://www.w3.org/2000/svg" width="32" height="32" version="1.0" id="cricket">
<path fill="#ffc020" d="M13.121 0a.5.5 0 0 0-.492.508.5.5 0 0 0-.508-.496.5.5 0 0 0-.484.406.5.5 0 0 0-.498-.406.5.5 0 0 0-.493.506v.05h-.6a.5.5 0 0 0-.501.565H7.979c-.58 0-1.057.486-1.057 1.062v26.487c0 .608.443.935.443.935a.5.5 0 0 0 .319.13h-.295l.974 1.974a.5.5 0 0 0 .897 0l.974-1.975h-.312a.5.5 0 0 0 .336-.129s.443-.327.443-.935V2.195c0-.236-.094-.448-.228-.627h.173v.057a.5.5 0 0 0 .99.102.5.5 0 0 0 .993-.102.5.5 0 1 0 1-.01v-.047h.23c-.134.18-.228.39-.228.627v26.487c0 .608.441.935.441.935a.5.5 0 0 0 .319.13h-.295l.974 1.974a.5.5 0 0 0 .897 0l.974-1.975h-.312a.5.5 0 0 0 .336-.129s.443-.327.443-.935V2.195c0-.236-.094-.448-.228-.627h.15v.047a.5.5 0 1 0 1 0 .5.5 0 1 0 1 .002.5.5 0 1 0 1 0v-.049h.149c-.135.18-.229.39-.229.627v26.487c0 .608.443.935.443.935a.5.5 0 0 0 .319.13h-.295l.974 1.974a.5.5 0 0 0 .897 0l.974-1.975h-.312a.5.5 0 0 0 .336-.129s.443-.327.443-.935V2.195c0-.576-.476-1.062-1.056-1.062H21.71a.5.5 0 0 0-.502-.565h-.879V.51a.5.5 0 0 0-.508-.506.5.5 0 0 0-.492.504.5.5 0 0 0-.508-.508.5.5 0 0 0-.492.508.5.5 0 0 0-.508-.508.5.5 0 0 0-.492.508v.06h-1.172a.5.5 0 0 0-.502.565H15.6a.5.5 0 0 0-.502-.565h-1.47v-.06A.5.5 0 0 0 13.122 0zM7.98 2.133h1.666c.035 0 .056.015.056.062V8.75a.5.5 0 0 0-.072-.004H7.922v-6.55c0-.048.02-.063.057-.063zm6.707 0h1.666c.035 0 .056.015.056.062v6.551h-1.777v-6.55c0-.048.019-.063.055-.063zm6.62 0h1.667c.035 0 .056.015.056.062v6.551H21.25v-6.55c0-.048.021-.063.057-.063zM9.702 9.743v1.007a.5.5 0 0 0-.072-.004H7.922v-1h1.707a.5.5 0 0 0 .072-.004zm4.93.003h1.777v1h-1.777v-1zm6.619 0h1.78v1h-1.78v-1zM9.701 11.742v1.008a.5.5 0 0 0-.072-.004H7.922v-1h1.707a.5.5 0 0 0 .072-.004zm4.93.004h1.777v1h-1.777v-1zm6.619 0h1.78v1h-1.78v-1zM9.701 13.742v14.94c0 .015-.113.193-.113.193a.5.5 0 0 0-.113.15.5.5 0 0 0-.01.02l-.652 1.326-.659-1.332v-.002a.5.5 0 0 0-.006-.012.5.5 0 0 0-.113-.15s-.113-.178-.113-.193V13.746h1.707a.5.5 0 0 0 .072-.004zm4.93.004h1.777v14.936c0 .015-.113.193-.113.193a.5.5 0 0 0-.113.15.5.5 0 0 0-.01.02l-.652 1.326-.659-1.332v-.002a.5.5 0 0 0-.006-.012.5.5 0 0 0-.113-.15s-.111-.178-.111-.193V13.746zm6.619 0h1.78v14.936c0 .015-.114.193-.114.193a.5.5 0 0 0-.113.15.5.5 0 0 0-.01.02l-.652 1.326-.659-1.332v-.002a.5.5 0 0 0-.005-.012.5.5 0 0 0-.114-.15s-.113-.178-.113-.193V13.746z" color="#ffc020" font-family="sans-serif" font-weight="400" overflow="visible" style="line-height:normal;text-indent:0;text-align:start;text-decoration-line:none;text-decoration-style:solid;text-decoration-color:#ffc020;text-transform:none;block-progression:tb;white-space:normal;isolation:auto;mix-blend-mode:normal;solid-color:#ffc020;solid-opacity:1"></path></svg>