<svg width="58" height="58" fill="none" xmlns="http://www.w3.org/2000/svg"><path d="M29.001 52.772a23.77 23.77 0 1 1 23.768-23.77 23.798 23.798 0 0 1-23.768 23.77Zm0-45.26a21.488 21.488 0 1 0 21.486 21.49 21.514 21.514 0 0 0-21.486-21.49Z" fill="url('#paint0_radial_713_478556')"/><path d="M29.285 36.045h-.57V58h.57V36.045Z" fill="url('#paint1_radial_713_478556')"/><path d="M29.285 0h-.57v21.955h.57V0Z" fill="url('#paint2_radial_713_478556')"/><path d="M21.955 28.715H0v.57h21.955v-.57Z" fill="url('#paint3_radial_713_478556')"/><path d="M58 28.715H36.045v.57H58v-.57Z" fill="url('#paint4_radial_713_478556')"/><defs><radialGradient id="paint0_radial_713_478556" cx="0" cy="0" r="1" gradientUnits="userSpaceOnUse" gradientTransform="matrix(0 29 -29 0 29 29)"><stop stop-color="#FFC020"/><stop offset="1" stop-color="#FFC020" stop-opacity="0"/></radialGradient><radialGradient id="paint1_radial_713_478556" cx="0" cy="0" r="1" gradientUnits="userSpaceOnUse" gradientTransform="matrix(0 29 -29 0 29 29)"><stop stop-color="#FFC020"/><stop offset="1" stop-color="#FFC020" stop-opacity="0"/></radialGradient><radialGradient id="paint2_radial_713_478556" cx="0" cy="0" r="1" gradientUnits="userSpaceOnUse" gradientTransform="matrix(0 29 -29 0 29 29)"><stop stop-color="#FFC020"/><stop offset="1" stop-color="#FFC020" stop-opacity="0"/></radialGradient><radialGradient id="paint3_radial_713_478556" cx="0" cy="0" r="1" gradientUnits="userSpaceOnUse" gradientTransform="matrix(0 29 -29 0 29 29)"><stop stop-color="#FFC020"/><stop offset="1" stop-color="#FFC020" stop-opacity="0"/></radialGradient><radialGradient id="paint4_radial_713_478556" cx="0" cy="0" r="1" gradientUnits="userSpaceOnUse" gradientTransform="matrix(0 29 -29 0 29 29)"><stop stop-color="#FFC020"/><stop offset="1" stop-color="#FFC020" stop-opacity="0"/></radialGradient></defs></svg>